<?xml version="1.0" standalone="no"?>
<!DOCTYPE svg PUBLIC "-//W3C//DTD SVG 20010904//EN"
 "http://www.w3.org/TR/2001/REC-SVG-20010904/DTD/svg10.dtd">
<svg version="1.0" xmlns="http://www.w3.org/2000/svg"
 width="1500.000000pt" height="1500.000000pt" viewBox="0 0 1500.000000 1500.000000"
 preserveAspectRatio="xMidYMid meet">
<metadata>
Created by potrace 1.14, written by Peter Selinger 2001-2017
</metadata>
<g transform="translate(0.000000,1500.000000) scale(0.100000,-0.100000)"
fill="#000000" stroke="none">
<path d="M6434 11400 c-71 -11 -210 -79 -271 -134 -107 -97 -173 -233 -181
-373 -9 -170 31 -286 145 -423 31 -37 139 -110 205 -138 l63 -27 1095 0 c1053
0 1097 1 1154 19 258 85 429 373 374 629 -45 208 -172 353 -370 425 l-73 27
-1045 1 c-575 1 -1068 -2 -1096 -6z"/>
<path d="M5140 9163 c-50 -8 -146 -47 -200 -80 -187 -118 -288 -352 -245 -565
19 -92 43 -151 88 -217 64 -93 171 -173 286 -215 55 -21 75 -21 1178 -24 972
-2 1131 0 1188 13 204 47 367 205 421 409 16 60 18 172 4 247 -35 191 -217
378 -411 424 -55 13 -216 15 -1174 13 -610 0 -1121 -3 -1135 -5z"/>
<path d="M9433 9160 c-41 -9 -143 -48 -153 -60 -3 -3 -21 -16 -41 -28 -92 -56
-186 -187 -223 -311 -18 -62 -21 -202 -5 -271 17 -79 86 -203 140 -256 88 -86
116 -104 209 -140 74 -28 78 -28 290 -29 176 0 224 3 265 17 82 28 141 57 171
84 6 6 25 21 40 35 159 135 227 367 167 571 -55 186 -223 344 -408 384 -67 15
-383 17 -452 4z"/>
<path d="M3870 6930 c-269 -41 -468 -272 -472 -543 -1 -87 5 -120 39 -210 27
-72 89 -163 144 -212 56 -49 175 -111 241 -126 50 -11 189 -14 678 -14 l615 0
78 28 c43 15 102 42 130 61 250 160 329 491 177 747 -67 113 -175 200 -305
246 l-80 28 -595 2 c-327 0 -620 -3 -650 -7z"/>
<path d="M7190 6929 c-178 -23 -344 -142 -422 -302 -165 -339 30 -720 407
-796 84 -17 3943 -11 3995 6 101 34 131 48 192 93 128 94 206 227 229 391 10
75 9 97 -5 163 -54 239 -243 417 -476 445 -103 13 -3821 13 -3920 0z"/>
<path d="M2550 4694 c-8 -3 -44 -15 -80 -26 -84 -27 -130 -57 -210 -138 -106
-107 -152 -222 -154 -380 -1 -93 2 -114 28 -185 60 -162 180 -280 350 -344
l71 -26 2510 -3 c1743 -2 2531 1 2580 8 138 21 298 123 370 235 64 101 84 161
92 280 17 262 -158 504 -413 570 -51 13 -350 15 -2594 14 -1394 0 -2542 -3
-2550 -5z"/>
<path d="M9608 4670 c-180 -67 -309 -206 -352 -381 -48 -197 3 -389 144 -530
72 -72 132 -109 230 -142 l65 -22 1370 0 1370 0 70 23 c128 41 230 116 301
222 152 226 109 543 -98 724 -62 54 -170 109 -246 125 -37 8 -460 11 -1415 11
l-1362 -1 -77 -29z"/>
</g>
</svg>
